<svg width="1375" height="1225" viewBox="0 0 1375 1225" fill="none" xmlns="http://www.w3.org/2000/svg">
<path d="M411.575 329.3C549.075 233.3 931 913 695.5 625.5C460 338 445 631.3 510.5 738C576 844.7 274.076 425.3 411.575 329.3Z" fill="url(#paint0_radial_80_1787)"/>
<path d="M961.018 918.301C823.518 1014.3 433.5 343.8 669 631.3C904.5 918.8 926.5 645 899 600C871.5 555 1098.52 822.301 961.018 918.301Z" fill="url(#paint1_radial_80_1787)"/>
<path d="M398.129 362.989C542 172 -252.742 786.5 398.129 1044.5C1049 1302.5 254.258 553.978 398.129 362.989Z" fill="url(#paint2_radial_80_1787)"/>
<path d="M963.098 885.989C822.598 1084.99 1604.1 412.488 963.098 198.989C322.098 -14.5107 1103.6 686.989 963.098 885.989Z" fill="url(#paint3_radial_80_1787)"/>
<path d="M544.359 312.956C719.787 217.121 -97.3627 411.032 309.341 831.965C716.045 1252.9 368.931 408.791 544.359 312.956Z" fill="#FBFDD5" fill-opacity="0.3"/>
<path d="M794.259 906.079C618.636 1009.18 1445.7 766.529 1031.17 382.89C616.637 -0.749729 969.882 802.98 794.259 906.079Z" fill="#FBFDD5" fill-opacity="0.3"/>
<path d="M327.75 335.27C473.362 95.087 -382.967 907.016 408.149 1131.76C1199.27 1356.5 182.138 575.453 327.75 335.27Z" fill="url(#paint4_radial_80_1787)" fill-opacity="0.5"/>
<path d="M1049.73 879.855C909.007 1129 1743.02 250.85 968.687 76.9513C194.357 -96.9474 1190.46 630.707 1049.73 879.855Z" fill="url(#paint5_radial_80_1787)" fill-opacity="0.5"/>
<circle cx="677" cy="622" r="10" fill="#FCEF7C"/>
<defs>
<radialGradient id="paint0_radial_80_1787" cx="0" cy="0" r="1" gradientUnits="userSpaceOnUse" gradientTransform="translate(690.427 623.86) rotate(90) scale(303.934 303.934)">
<stop offset="0.40585" stop-color="#FFE9BE"/>
<stop offset="1" stop-color="#1B557F" stop-opacity="0.43"/>
</radialGradient>
<radialGradient id="paint1_radial_80_1787" cx="0" cy="0" r="1" gradientUnits="userSpaceOnUse" gradientTransform="translate(690.427 623.86) rotate(90) scale(303.934 303.934)">
<stop offset="0.40585" stop-color="#FFE9BE"/>
<stop offset="1" stop-color="#1B557F" stop-opacity="0.43"/>
</radialGradient>
<radialGradient id="paint2_radial_80_1787" cx="0" cy="0" r="1" gradientUnits="userSpaceOnUse" gradientTransform="translate(680.196 628.48) rotate(90) scale(469.48 539.03)">
<stop offset="0.25085" stop-color="#981618" stop-opacity="0.69"/>
<stop offset="1" stop-color="#13D4D1" stop-opacity="0.31"/>
</radialGradient>
<radialGradient id="paint3_radial_80_1787" cx="0" cy="0" r="1" gradientUnits="userSpaceOnUse" gradientTransform="translate(680.196 628.48) rotate(90) scale(469.48 539.03)">
<stop offset="0.25085" stop-color="#981618" stop-opacity="0.69"/>
<stop offset="1" stop-color="#13D4D1" stop-opacity="0.31"/>
</radialGradient>
<radialGradient id="paint4_radial_80_1787" cx="0" cy="0" r="1" gradientUnits="userSpaceOnUse" gradientTransform="translate(688.725 612.276) rotate(84.236) scale(551.474 633.171)">
<stop offset="0.52585" stop-color="#13D4D1" stop-opacity="0.31"/>
<stop offset="0.86585" stop-color="#981618" stop-opacity="0.33"/>
</radialGradient>
<radialGradient id="paint5_radial_80_1787" cx="0" cy="0" r="1" gradientUnits="userSpaceOnUse" gradientTransform="translate(688.725 612.276) rotate(84.236) scale(551.474 633.171)">
<stop offset="0.52585" stop-color="#13D4D1" stop-opacity="0.31"/>
<stop offset="0.86585" stop-color="#981618" stop-opacity="0.33"/>
</radialGradient>
</defs>
</svg>
